<svg version="1.2" xmlns="http://www.w3.org/2000/svg" viewBox="0 0 100 100" width="100" height="100">
	<title>card_back</title>
	<style>
		.s0 { fill: #f9c100 } 
		.s1 { fill: #084c61 } 
	</style>
	<path id="Layer 1" fill-rule="evenodd" class="s0" d="m100 0v100h-100v-100z"/>
	<path id="M&amp;A&amp;M&amp;A&amp;M&amp;A" class="s1" aria-label="M&amp;A&amp;M&amp;A&amp;M&amp;A"  d="m2.2 16.7h1.5v-11.1l7.5 11.1h1.1l7.5-11.2v11.2h1.5v-14.2h-1.3c-2.8 4.1-5.6 8.2-8.3 12.3l-8.2-12.3h-1.3zm2.8 1.4h-4.1v-16.9h3.3l7.5 11.2 7.6-11.2h3.3v16.9h-4.1v-8.1l-5.4 8.1h-2.7l-5.4-8.1zm-0.5-17.5h-4.2v18.1l2.5 2.3h5.1v-5.6l2.2 3.3 2.5 2.3h3.1l2.2-3.2v0.9l2.5 2.3h5.1v-17.9l-2.3-2.5h-4.2l-7 10.3-5.2-7.8zm37.9 4.7c0-0.7-2.5-0.8-3.1-0.8-0.8 0-3 0.2-3 0.8 0 0.4 2.3 2 2.8 2.3 0.8-0.5 3.2-1.9 3.3-2.3zm1.4 0c0 1.5-3.8 3-4.9 3.7-1-0.6-4.1-2.5-4.1-3.8 0-1.5 3.5-1.9 4.5-1.9 2.5 0 4.5 0.7 4.5 2zm-8.7 8.6c0 0.1 0.2 0.1 0.3 0.2 1 0.2 2.9 0.3 3.9 0.3 1.2 0 2.2-0.1 3.3-0.5-1.3-0.6-2.5-1.4-3.8-2.1-0.4 0.2-3.7 1.7-3.7 2.1zm-1.6 0c0-1.1 4.5-3.2 5.4-3.6 2.2 1.3 4.5 2.5 6.7 3.9-1.6 0.6-4.6 1.3-6.3 1.3-1 0-5.8 0.1-5.8-1.6zm-3.2 0c0-1.9 3.3-3.7 4.7-4.5-1.4-1-3.1-2.4-3.1-4.2 0-3.7 4.7-4.3 7.4-4.3 2.7 0 7.4 0.6 7.4 4.2 0 2.1-2.2 3.8-3.8 4.7l4.2 2.6c1-0.5 2.1-1 3.1-1.6l2.8 3.3c-0.5 0.3-1.2 0.6-1.8 0.8l4.9 3.1h-7l-2.2-1.2c-2.4 0.7-5.1 1.3-7.6 1.3-2.8 0-9-0.2-9-4.2zm1.3 0c0 2.9 5.9 2.9 7.7 2.9 2.5 0 5.4-0.7 7.7-1.5l2.5 1.4h2.3l-3.4-2.1c0.9-0.3 1.8-0.6 2.7-1l-1-1.3c-1 0.5-1.9 1-3 1.4l-7-4.1c1.4-0.6 5.3-2.6 5.3-4.5 0-2.6-4.3-2.8-6.1-2.8-1.6 0-6.1 0.4-6.1 2.9 0 1.5 3.4 3.5 4.6 4.3-1.1 0.5-6.2 3-6.2 4.4zm-1.9 0c0 1.5 0.4 2.6 3.3 5.2 2 1.9 6.5 1.9 8.7 1.9 2.5 0 5.2-0.5 7.5-1.3l2.1 1.3h9l-9.7-11.1c-1.1 0.6-3.1 1.7-3.5 1.8 1.3-1.1 2.5-2.5 2.5-4.2 0-1.1-0.1-2.1-2.7-4.6-1.9-2.1-5.3-2.6-7.6-2.6-2.9 0-8 0.7-8 4.9 0 1.6 1.2 3 2.4 3.9l0.2 0.2c-1.7 1-4.2 2.7-4.2 4.6zm38.2-2.4l5.2-7.2 5.1 7.2zm5.1-4.9l-2.5 3.6h5.1zm10.4 10.1l-9.9-14.2h-1.1c-3.4 4.8-6.8 9.5-10.2 14.2h2c0.9-1.2 1.7-2.5 2.6-3.7h12.2l2.6 3.7zm-9.2-15.5l11.8 16.8h-5.1l-2.6-3.7h-10.8l-2.7 3.7h-5.1l12-16.8zm0.3-0.6h-3.1l-12.9 18 2.6 2.4h6.4c0.7-1.1 1.8-2.6 2.6-3.7h9.5l1 1.3 2.4 2.4h6.4l-12.5-17.9zm28.3 4.6c0-0.6-2.4-0.8-3-0.8-0.9 0-3.1 0.3-3.1 0.8 0 0.5 2.4 2.1 2.8 2.4 0.9-0.5 3.3-1.9 3.3-2.4zm1.5 0c0 1.5-3.8 3.1-5 3.7-1-0.5-4-2.5-4-3.7 0-1.5 3.5-1.9 4.5-1.9 2.4 0 4.5 0.6 4.5 1.9zm-8.8 8.6c0 0.2 0.3 0.2 0.4 0.2 0.9 0.3 2.9 0.3 3.9 0.3 1.1 0 2.1 0 3.2-0.5-1.3-0.5-2.5-1.3-3.7-2-0.4 0.1-3.8 1.7-3.8 2zm-1.6 0c0-1 4.6-3.1 5.4-3.6 2.2 1.4 4.5 2.6 6.7 4-1.5 0.6-4.5 1.3-6.2 1.3-1 0-5.9 0-5.9-1.7zm-3.1 0c0-1.9 3.2-3.7 4.7-4.5-1.4-0.9-3.2-2.3-3.2-4.1 0-3.7 4.7-4.3 7.5-4.3 2.6 0 7.4 0.6 7.4 4.2 0 2-2.2 3.8-3.8 4.7l4.1 2.6c1.1-0.5 2.1-1.1 3.1-1.7l2.8 3.3c-0.5 0.4-1.1 0.7-1.7 0.9l4.9 3.1h-7.1l-2.2-1.3c-2.3 0.8-5.1 1.4-7.5 1.4-2.8 0-9-0.2-9-4.3zm1.3 0c0 2.9 5.8 3 7.7 3 2.4 0 5.4-0.7 7.7-1.5l2.4 1.4h2.4l-3.5-2.1c1-0.3 1.9-0.7 2.8-1l-1-1.3c-1 0.5-2 1-3 1.4l-7.1-4.1c1.5-0.6 5.3-2.6 5.3-4.5 0-2.6-4.3-2.8-6-2.8-1.7 0-6.1 0.4-6.1 2.9 0 1.5 3.4 3.5 4.5 4.2-1.1 0.6-6.1 3.1-6.1 4.4zm-1.9 0c0 1.5 0.4 2.7 3.3 5.2 1.9 2 6.5 2 8.7 2 2.4 0 5.1-0.6 7.5-1.3l2.1 1.2h9l-9.8-11.1c-1.1 0.7-3 1.8-3.5 1.9 1.4-1.1 2.6-2.6 2.6-4.2 0-1.2-0.1-2.1-2.7-4.6-2-2.2-5.4-2.6-7.6-2.6-3 0-8.1 0.6-8.1 4.9 0 1.5 1.3 3 2.5 3.9l0.1 0.2c-1.7 0.9-4.1 2.6-4.1 4.5zm32.1 2.9h1.4v-11.1l7.5 11.1h1.2l7.4-11.2v11.2h1.5v-14.2h-1.2c-2.8 4.1-5.6 8.2-8.3 12.3l-8.3-12.3h-1.2zm2.8 1.4h-4.2v-16.9h3.3l7.6 11.2 7.5-11.2h3.4v16.9h-4.2v-8.2l-5.4 8.2h-2.6l-5.4-8.1zm-0.6-17.5h-4.2v18.1l2.5 2.3h5.2v-5.6l2.2 3.3 2.4 2.3h3.2l2.1-3.2v0.9l2.5 2.3h5.2v-17.9l-2.3-2.5h-4.2l-7 10.3-5.2-7.8zm37.8 4.7c0-0.7-2.4-0.8-3-0.8-0.9 0-3.1 0.2-3.1 0.8 0 0.4 2.4 2 2.8 2.3 0.9-0.5 3.3-1.9 3.3-2.3zm1.4 0c0 1.5-3.7 3-4.9 3.6-1-0.5-4.1-2.4-4.1-3.7 0-1.5 3.6-1.9 4.6-1.9 2.4 0 4.5 0.7 4.4 2zm-8.7 8.6c0 0.1 0.3 0.1 0.3 0.2 1 0.2 3 0.2 4 0.2 1.1 0 2.1 0 3.2-0.4-1.3-0.6-2.5-1.4-3.7-2.1-0.4 0.2-3.8 1.7-3.8 2.1zm-1.6 0c0-1.1 4.6-3.2 5.4-3.6 2.2 1.3 4.5 2.5 6.7 3.9-1.5 0.6-4.5 1.3-6.2 1.3-1 0-5.9 0.1-5.9-1.6zm-3.1 0c0-1.9 3.2-3.8 4.7-4.5-1.4-1-3.2-2.4-3.2-4.2 0-3.7 4.7-4.3 7.5-4.3 2.6 0 7.4 0.6 7.4 4.2 0 2-2.2 3.8-3.8 4.7l4.1 2.6c1.1-0.5 2.1-1 3.1-1.6l2.8 3.3c-0.5 0.3-1.1 0.6-1.7 0.8l4.9 3.1h-7.1l-2.2-1.3c-2.3 0.8-5.1 1.4-7.5 1.4-2.8 0-9-0.2-9-4.2zm1.3 0c0 2.8 5.8 2.9 7.7 2.9 2.4 0 5.4-0.7 7.7-1.5l2.4 1.4h2.4l-3.5-2.1c1-0.3 1.9-0.6 2.8-1l-1-1.3c-1 0.5-2 1-3 1.4l-7.1-4.1c1.5-0.6 5.3-2.6 5.3-4.5 0-2.6-4.3-2.8-6-2.8-1.7 0-6.1 0.4-6.1 2.9 0 1.5 3.3 3.5 4.5 4.3-1.1 0.5-6.1 3-6.1 4.4zm-1.9 0c0 1.5 0.4 2.6 3.2 5.2 2 1.9 6.6 1.9 8.8 1.9 2.4 0 5.1-0.5 7.4-1.3l2.2 1.3h9l-9.8-11.1c-1.1 0.6-3 1.7-3.5 1.8 1.4-1.1 2.6-2.5 2.6-4.2 0-1.1-0.1-2.1-2.7-4.6-2-2.1-5.4-2.6-7.6-2.6-3 0-8.1 0.7-8.1 4.9 0 1.6 1.3 3 2.5 3.9l0.1 0.2c-1.7 1-4.1 2.7-4.1 4.6zm38.2-2.4l5.2-7.2 5 7.2zm5.2-4.9l-2.6 3.6h5.1zm10.5 10.1l-9.9-14.2h-1.2c-3.3 4.8-6.7 9.5-10.1 14.2h1.9c0.9-1.2 1.7-2.5 2.6-3.7h12.3l2.6 3.7zm-9.2-15.5l11.8 16.8h-5.1l-2.7-3.7h-10.8l-2.6 3.7h-5.1l12-16.8zm0.3-0.6h-3.2l-12.8 18 2.5 2.4h6.4c0.8-1.1 1.9-2.6 2.7-3.7h9.4l1 1.3 2.5 2.4h6.3l-12.4-17.9zm28.3 4.6c0-0.6-2.5-0.8-3.1-0.8-0.8 0-3 0.3-3 0.8 0 0.5 2.3 2.1 2.7 2.4 0.9-0.5 3.3-1.9 3.4-2.4zm1.4 0c0 1.5-3.8 3.1-4.9 3.7-1.1-0.5-4.1-2.5-4.1-3.7 0-1.5 3.5-1.9 4.5-1.9 2.5 0 4.5 0.6 4.5 1.9zm-8.7 8.6c0 0.2 0.2 0.2 0.3 0.2 1 0.3 2.9 0.3 3.9 0.3 1.2 0 2.2-0.1 3.2-0.5-1.2-0.5-2.4-1.4-3.7-2-0.4 0.1-3.7 1.7-3.7 2zm-1.6 0c0-1 4.5-3.1 5.4-3.6 2.2 1.4 4.5 2.6 6.7 4-1.6 0.6-4.6 1.3-6.3 1.3-1 0-5.8 0-5.8-1.7zm-3.2 0c0-1.9 3.3-3.7 4.7-4.5-1.4-0.9-3.1-2.3-3.1-4.1 0-3.7 4.7-4.3 7.4-4.3 2.7 0 7.4 0.6 7.4 4.2 0 2-2.2 3.8-3.8 4.7l4.2 2.6c1-0.5 2.1-1.1 3.1-1.7l2.8 3.3c-0.5 0.4-1.2 0.7-1.8 0.9l4.9 3.1h-7l-2.3-1.3c-2.3 0.8-5 1.4-7.5 1.4-2.8 0-9-0.2-9-4.3zm1.3 0c0 2.9 5.9 3 7.7 3 2.5 0 5.4-0.8 7.7-1.5l2.5 1.4h2.3l-3.4-2.1c0.9-0.3 1.8-0.7 2.7-1l-1-1.3c-1 0.5-1.9 1-3 1.4l-7-4.1c1.4-0.6 5.3-2.6 5.3-4.5 0-2.6-4.3-2.9-6.1-2.9-1.6 0-6.1 0.5-6.1 3 0 1.5 3.4 3.5 4.5 4.2-1 0.6-6.1 3.1-6.1 4.4zm-1.9 0c0 1.5 0.4 2.7 3.3 5.2 2 2 6.5 2 8.7 2 2.5 0 5.2-0.6 7.5-1.3l2.1 1.2h9l-9.7-11.1c-1.1 0.7-3.1 1.8-3.5 1.9 1.3-1.1 2.5-2.6 2.5-4.2 0-1.2-0.1-2.1-2.7-4.6-2-2.2-5.3-2.6-7.6-2.6-2.9 0-8 0.6-8 4.9 0 1.5 1.2 3 2.4 3.9l0.2 0.2c-1.7 0.9-4.2 2.6-4.2 4.5zm32.1 2.9h1.5v-11.1l7.4 11.1h1.2l7.5-11.2v11.2h1.5v-14.2h-1.3c-2.8 4.1-5.6 8.2-8.3 12.3l-8.3-12.3h-1.2zm2.8 1.4h-4.1v-16.9h3.3l7.5 11.2 7.6-11.2h3.3v16.9h-4.1v-8.2l-5.5 8.2h-2.6l-5.4-8.1zm-0.5-17.5h-4.2v18.1l2.4 2.3h5.2v-5.6l2.2 3.3 2.4 2.3h3.2l2.2-3.2v0.9l2.4 2.3h5.2v-17.9l-2.3-2.5h-4.2l-7 10.3-5.2-7.8zm37.9 4.6c0-0.6-2.5-0.7-3.1-0.7-0.8 0-3 0.2-3 0.7 0 0.5 2.3 2.1 2.7 2.4 0.9-0.5 3.3-1.9 3.4-2.4zm1.4 0c0 1.6-3.8 3.1-5 3.7-1-0.5-4-2.5-4-3.7 0-1.5 3.5-1.9 4.5-1.9 2.5 0 4.5 0.7 4.5 1.9zm-8.7 8.7c0 0.1 0.2 0.1 0.3 0.2 1 0.2 2.9 0.2 3.9 0.2 1.2 0 2.2 0 3.2-0.4-1.2-0.6-2.5-1.4-3.7-2.1-0.4 0.2-3.7 1.7-3.7 2.1zm-1.7 0c0-1.1 4.6-3.2 5.5-3.6 2.2 1.3 4.5 2.5 6.7 3.9-1.6 0.6-4.6 1.3-6.3 1.3-1 0-5.9 0.1-5.9-1.6zm-3.1 0c0-1.9 3.3-3.8 4.7-4.5-1.4-1-3.1-2.4-3.1-4.2 0-3.7 4.7-4.3 7.4-4.3 2.7 0 7.4 0.6 7.4 4.2 0 2-2.2 3.8-3.8 4.7l4.2 2.6c1-0.5 2.1-1 3.1-1.6l2.8 3.3c-0.5 0.3-1.2 0.6-1.8 0.8l4.9 3.1h-7l-2.3-1.3c-2.3 0.8-5 1.4-7.5 1.4-2.8 0-9-0.2-9-4.2zm1.3 0c0 2.8 5.9 2.9 7.7 2.9 2.5 0 5.4-0.7 7.7-1.5l2.5 1.4h2.3l-3.4-2.1c0.9-0.3 1.8-0.6 2.7-1l-1-1.3c-1 0.5-1.9 1-3 1.4l-7.1-4.1c1.5-0.6 5.4-2.6 5.4-4.5 0-2.6-4.3-2.8-6.1-2.8-1.7 0-6.1 0.4-6.1 2.9 0 1.5 3.4 3.5 4.5 4.2-1 0.6-6.1 3.1-6.1 4.5zm-1.9 0c0 1.5 0.4 2.6 3.3 5.1 2 2 6.5 2 8.7 2 2.5 0 5.2-0.5 7.5-1.3l2.1 1.3h9l-9.7-11.1c-1.1 0.6-3.1 1.7-3.5 1.8 1.3-1.1 2.5-2.5 2.5-4.2 0-1.1-0.1-2.1-2.7-4.6-2-2.1-5.3-2.6-7.6-2.6-2.9 0-8 0.7-8 4.9 0 1.6 1.2 3 2.4 3.9l0.2 0.2c-1.7 1-4.2 2.7-4.2 4.6zm38.2-2.4l5.2-7.2 5.1 7.2zm5.1-4.9l-2.5 3.6h5zm10.5 10.1l-9.9-14.2h-1.1c-3.4 4.8-6.8 9.5-10.2 14.2h2c0.8-1.2 1.7-2.5 2.6-3.7h12.2l2.6 3.7zm-9.2-15.5l11.8 16.8h-5.1l-2.6-3.7h-10.9l-2.6 3.7h-5.1l12-16.8zm0.3-0.6h-3.1l-12.9 18 2.6 2.4h6.4c0.7-1.1 1.8-2.6 2.6-3.8h9.5l1 1.4 2.4 2.4h6.4l-12.5-17.9z"/>
	<path id="A&amp;M&amp;A&amp;M&amp;A&amp;M&amp;A" class="s1" aria-label="A&amp;M&amp;A&amp;M&amp;A&amp;M&amp;A"  d="m-20.6 31.5l5.1-7.2 5.1 7.2zm5.1-4.9l-2.5 3.6h5.1zm10.4 10.1l-9.9-14.2h-1.1c-3.4 4.8-6.8 9.5-10.1 14.2h1.9c0.9-1.2 1.7-2.5 2.6-3.7h12.3l2.5 3.7zm-9.1-15.5l11.7 16.8h-5.1l-2.6-3.7h-10.8l-2.7 3.7h-5.1l12-16.8zm0.3-0.6h-3.1l-12.9 18 2.6 2.4h6.4c0.7-1.1 1.8-2.6 2.6-3.8h9.5l1 1.4 2.4 2.4h6.4l-12.5-18zm28.3 4.7c0-0.6-2.4-0.8-3-0.8-0.8 0-3.1 0.3-3.1 0.8 0 0.5 2.4 2.1 2.8 2.4 0.9-0.5 3.3-2 3.3-2.4zm1.5 0c0 1.5-3.8 3.1-5 3.7-1-0.6-4-2.5-4-3.8 0-1.4 3.5-1.8 4.5-1.8 2.4 0 4.5 0.6 4.5 1.9zm-8.8 8.6c0 0.1 0.3 0.2 0.4 0.2 0.9 0.3 2.9 0.3 3.9 0.3 1.1 0 2.1-0.1 3.2-0.5-1.3-0.6-2.5-1.4-3.7-2.1-0.4 0.2-3.8 1.8-3.8 2.1zm-1.6 0c0-1 4.6-3.1 5.4-3.6 2.2 1.3 4.5 2.6 6.7 3.9-1.5 0.7-4.5 1.4-6.2 1.4-1 0-5.9 0-5.9-1.7zm-3.1 0c0-1.9 3.2-3.7 4.7-4.5-1.4-0.9-3.1-2.3-3.1-4.2 0-3.7 4.6-4.2 7.4-4.2 2.6 0 7.4 0.6 7.4 4.2 0 2-2.2 3.8-3.8 4.7l4.1 2.6c1.1-0.5 2.1-1.1 3.1-1.7l2.8 3.3c-0.5 0.4-1.1 0.7-1.7 0.9l4.9 3.1h-7.1l-2.2-1.3c-2.3 0.7-5.1 1.4-7.5 1.4-2.8 0-9-0.2-9-4.3zm1.3 0c0 2.9 5.8 2.9 7.7 2.9 2.4 0 5.4-0.7 7.7-1.4l2.4 1.4h2.4l-3.5-2.1c1-0.3 1.9-0.7 2.8-1.1l-1-1.3c-1 0.5-2 1.1-3 1.5l-7.1-4.1c1.5-0.7 5.3-2.7 5.3-4.5 0-2.6-4.3-2.9-6-2.9-1.7 0-6.1 0.4-6.1 2.9 0 1.6 3.4 3.6 4.5 4.3-1.1 0.6-6.1 3.1-6.1 4.4zm-1.9 0c0 1.5 0.4 2.7 3.3 5.2 1.9 2 6.5 2 8.7 2 2.4 0 5.1-0.6 7.5-1.3l2.1 1.2h9l-9.8-11.1c-1.1 0.6-3 1.7-3.5 1.8 1.4-1 2.6-2.5 2.6-4.1 0-1.2-0.1-2.1-2.7-4.6-2-2.2-5.4-2.6-7.6-2.6-3 0-8 0.6-8 4.8 0 1.6 1.2 3 2.4 4l0.1 0.2c-1.7 0.9-4.1 2.6-4.1 4.5zm32.1 2.9h1.4v-11.2l7.5 11.2h1.2l7.4-11.2v11.2h1.5v-14.2h-1.2c-2.8 4-5.6 8.2-8.3 12.3l-8.3-12.3h-1.2zm2.8 1.3h-4.2v-16.8h3.3l7.6 11.2 7.5-11.2h3.4v16.8h-4.2v-8.1l-5.4 8.1h-2.6l-5.4-8.1zm-0.6-17.4h-4.2v18l2.5 2.4h5.2v-5.6l2.2 3.2 2.4 2.4h3.2l2.1-3.2v0.8l2.5 2.4h5.2v-17.9l-2.3-2.5h-4.2l-7 10.3-5.2-7.8zm37.8 4.6c0-0.6-2.4-0.8-3-0.8-0.9 0-3.1 0.3-3.1 0.8 0 0.5 2.4 2.1 2.8 2.4 0.9-0.5 3.3-1.9 3.3-2.4zm1.5 0c0 1.5-3.8 3.1-5 3.7-1-0.5-4-2.5-4-3.7 0-1.5 3.5-1.9 4.5-1.9 2.4 0 4.5 0.6 4.5 1.9zm-8.8 8.6c0 0.2 0.3 0.2 0.4 0.2 0.9 0.3 2.9 0.3 3.9 0.3 1.1 0 2.1 0 3.2-0.5-1.3-0.5-2.5-1.3-3.7-2-0.4 0.1-3.8 1.7-3.8 2zm-1.6 0c0-1 4.6-3.1 5.4-3.6 2.2 1.4 4.5 2.6 6.7 4-1.5 0.6-4.5 1.3-6.2 1.3-1 0-5.9 0-5.9-1.7zm-3.1 0c0-1.9 3.2-3.7 4.7-4.5-1.4-0.9-3.2-2.3-3.2-4.1 0-3.7 4.7-4.3 7.5-4.3 2.6 0 7.4 0.6 7.4 4.2 0 2-2.2 3.8-3.8 4.7l4.1 2.6c1.1-0.5 2.1-1.1 3.1-1.7l2.8 3.3c-0.5 0.4-1.1 0.7-1.7 0.9l4.9 3.1h-7.1l-2.2-1.3c-2.3 0.8-5.1 1.4-7.5 1.4-2.8 0-9-0.2-9-4.3zm1.3 0c0 2.9 5.8 3 7.7 3 2.4 0 5.4-0.7 7.7-1.5l2.4 1.4h2.4l-3.5-2.1c1-0.3 1.9-0.7 2.8-1l-1-1.3c-1 0.5-2 1-3 1.4l-7.1-4.1c1.5-0.6 5.3-2.6 5.3-4.5 0-2.6-4.3-2.8-6-2.8-1.7 0-6.1 0.4-6.1 2.9 0 1.5 3.4 3.5 4.5 4.2-1.1 0.6-6.1 3.1-6.1 4.4zm-1.9 0c0 1.5 0.4 2.7 3.3 5.2 1.9 2 6.5 2 8.7 2 2.4 0 5.1-0.6 7.5-1.3l2.1 1.2h9l-9.8-11.1c-1.1 0.7-3 1.8-3.5 1.9 1.4-1.1 2.6-2.6 2.6-4.2 0-1.2-0.1-2.1-2.7-4.6-2-2.2-5.4-2.6-7.6-2.6-3 0-8.1 0.6-8.1 4.9 0 1.5 1.3 3 2.5 3.9l0.1 0.2c-1.7 0.9-4.1 2.6-4.1 4.5zm38.2-2.3l5.2-7.2 5 7.2zm5.2-4.9l-2.6 3.6h5.1zm10.5 10.1l-9.9-14.2h-1.2c-3.3 4.8-6.7 9.4-10.1 14.2h1.9c0.9-1.2 1.7-2.5 2.6-3.7h12.3l2.6 3.7zm-9.2-15.5l11.8 16.8h-5.1l-2.6-3.7h-10.9l-2.6 3.7h-5.1l12-16.8zm0.3-0.6h-3.2l-12.8 18 2.5 2.3h6.4c0.8-1 1.9-2.5 2.7-3.7h9.5l0.9 1.4 2.5 2.3h6.3l-12.4-17.9zm28.3 4.7c0-0.6-2.5-0.8-3.1-0.8-0.8 0-3 0.2-3 0.8 0 0.5 2.3 2.1 2.7 2.4 0.9-0.6 3.3-2 3.4-2.4zm1.4 0c0 1.5-3.8 3-4.9 3.7-1.1-0.6-4.1-2.5-4.1-3.8 0-1.4 3.5-1.8 4.5-1.8 2.5 0 4.5 0.6 4.5 1.9zm-8.7 8.6c0 0.1 0.2 0.2 0.3 0.2 1 0.3 2.9 0.3 3.9 0.3 1.2 0 2.2-0.1 3.3-0.5-1.3-0.6-2.5-1.4-3.8-2.1-0.4 0.2-3.7 1.8-3.7 2.1zm-1.6 0c0-1 4.5-3.2 5.4-3.6 2.2 1.3 4.5 2.6 6.7 3.9-1.6 0.7-4.6 1.4-6.3 1.4-1 0-5.8 0-5.8-1.7zm-3.2 0c0-1.9 3.3-3.7 4.7-4.5-1.4-0.9-3.1-2.3-3.1-4.2 0-3.7 4.7-4.2 7.4-4.2 2.7 0 7.4 0.6 7.4 4.2 0 2-2.2 3.7-3.8 4.7l4.2 2.6c1-0.5 2.1-1.1 3.1-1.7l2.8 3.3c-0.5 0.4-1.2 0.7-1.8 0.9l4.9 3.1h-7l-2.3-1.3c-2.3 0.7-5 1.4-7.5 1.4-2.8 0-9-0.3-9-4.3zm1.3 0c0 2.9 5.9 2.9 7.7 2.9 2.5 0 5.4-0.7 7.7-1.4l2.5 1.3h2.3l-3.4-2c0.9-0.3 1.8-0.7 2.7-1.1l-1-1.3c-1 0.5-1.9 1.1-3 1.5l-7-4.1c1.4-0.7 5.3-2.7 5.3-4.5 0-2.6-4.3-2.9-6.1-2.9-1.6 0-6.1 0.4-6.1 2.9 0 1.6 3.4 3.6 4.6 4.3-1.1 0.6-6.2 3.1-6.2 4.4zm-1.9 0c0 1.5 0.4 2.7 3.3 5.2 2 2 6.5 2 8.7 2 2.5 0 5.2-0.6 7.5-1.3l2.1 1.2h9l-9.7-11.1c-1.1 0.6-3.1 1.7-3.5 1.8 1.3-1 2.5-2.5 2.5-4.1 0-1.2-0.1-2.1-2.7-4.7-1.9-2.1-5.3-2.5-7.6-2.5-2.9 0-8 0.6-8 4.8 0 1.6 1.2 3 2.4 4l0.2 0.2c-1.7 0.9-4.2 2.6-4.2 4.5zm32.1 2.8h1.5v-11.1l7.5 11.1h1.1l7.5-11.1v11.1h1.5v-14.1h-1.3c-2.8 4-5.6 8.1-8.3 12.3l-8.3-12.3h-1.2zm2.8 1.3h-4.1v-16.8h3.3l7.5 11.2 7.6-11.2h3.3v16.8h-4.1v-8.1l-5.5 8.1h-2.6l-5.4-8.1zm-0.5-17.4h-4.2v18l2.5 2.4h5.1v-5.6l2.2 3.2 2.4 2.4h3.2l2.2-3.2v0.8l2.4 2.4h5.2v-17.9l-2.3-2.5h-4.2l-7 10.3-5.2-7.8zm37.9 4.6c0-0.6-2.5-0.8-3.1-0.8-0.8 0-3 0.3-3 0.8 0 0.5 2.3 2.1 2.7 2.4 0.9-0.5 3.3-1.9 3.4-2.4zm1.4 0c0 1.5-3.8 3.1-4.9 3.7-1.1-0.5-4.1-2.5-4.1-3.7 0-1.5 3.5-1.9 4.5-1.9 2.5 0 4.5 0.6 4.5 1.9zm-8.7 8.6c0 0.2 0.2 0.2 0.3 0.2 1 0.3 2.9 0.3 3.9 0.3 1.2 0 2.2-0.1 3.2-0.5-1.2-0.5-2.4-1.4-3.7-2-0.4 0.1-3.7 1.7-3.7 2zm-1.6 0c0-1 4.5-3.1 5.4-3.6 2.2 1.4 4.5 2.6 6.7 4-1.6 0.6-4.6 1.3-6.3 1.3-1 0-5.8 0-5.8-1.7zm-3.2 0c0-1.9 3.3-3.7 4.7-4.5-1.4-0.9-3.1-2.3-3.1-4.1 0-3.7 4.7-4.3 7.4-4.3 2.7 0 7.4 0.6 7.4 4.2 0 2-2.2 3.8-3.8 4.7l4.2 2.6c1-0.5 2.1-1.1 3.1-1.7l2.8 3.3c-0.5 0.4-1.2 0.7-1.8 0.9l4.9 3.1h-7l-2.3-1.3c-2.3 0.8-5 1.4-7.5 1.4-2.8 0-9-0.2-9-4.3zm1.3 0c0 2.9 5.9 3 7.7 3 2.5 0 5.4-0.8 7.7-1.5l2.5 1.4h2.3l-3.4-2.1c0.9-0.3 1.8-0.7 2.7-1l-1-1.3c-1 0.5-1.9 1-3 1.4l-7-4.1c1.4-0.6 5.3-2.6 5.3-4.5 0-2.6-4.3-2.9-6.1-2.9-1.6 0-6.1 0.5-6.1 3 0 1.5 3.4 3.5 4.5 4.2-1 0.6-6.1 3.1-6.1 4.4zm-1.9 0c0 1.5 0.4 2.7 3.3 5.2 2 2 6.5 2 8.7 2 2.5 0 5.2-0.6 7.5-1.3l2.1 1.2h9l-9.7-11.1c-1.1 0.7-3.1 1.8-3.5 1.9 1.3-1.1 2.5-2.6 2.5-4.2 0-1.2-0.1-2.1-2.7-4.6-2-2.2-5.3-2.6-7.6-2.6-2.9 0-8 0.6-8 4.9 0 1.5 1.2 3 2.4 3.9l0.2 0.2c-1.7 0.9-4.2 2.6-4.2 4.5zm38.2-2.3l5.2-7.2 5.1 7.2zm5.1-4.9l-2.5 3.6h5zm10.5 10.1l-9.9-14.2h-1.1c-3.4 4.8-6.8 9.4-10.2 14.2h2c0.8-1.3 1.7-2.5 2.6-3.7h12.2l2.6 3.7zm-9.2-15.5l11.8 16.8h-5.1l-2.6-3.7h-10.9l-2.6 3.7h-5.1l12-16.8zm0.3-0.6h-3.1l-12.9 18 2.6 2.3h6.4c0.7-1 1.8-2.5 2.6-3.7h9.5l1 1.4 2.4 2.3h6.4l-12.5-17.9zm28.3 4.7c0-0.6-2.4-0.8-3-0.8-0.9 0-3.1 0.2-3.1 0.8 0 0.5 2.4 2.1 2.8 2.3 0.9-0.5 3.3-1.9 3.3-2.3zm1.4 0c0 1.5-3.7 3-4.9 3.7-1-0.6-4.1-2.5-4.1-3.8 0-1.4 3.6-1.8 4.6-1.8 2.4 0 4.5 0.6 4.4 1.9zm-8.7 8.6c0 0.1 0.3 0.2 0.3 0.2 1 0.3 2.9 0.3 4 0.3 1.1 0 2.1-0.1 3.2-0.5-1.3-0.6-2.5-1.4-3.7-2.1-0.4 0.2-3.8 1.8-3.8 2.1zm-1.6 0c0-1 4.6-3.2 5.4-3.6 2.2 1.3 4.5 2.6 6.7 3.9-1.5 0.7-4.5 1.4-6.2 1.4-1.1 0-5.9 0-5.9-1.7zm-3.1 0c0-1.9 3.2-3.7 4.7-4.5-1.4-0.9-3.2-2.3-3.2-4.2 0-3.7 4.7-4.2 7.5-4.2 2.6 0 7.3 0.6 7.3 4.2 0 2-2.1 3.7-3.7 4.7l4.1 2.6c1.1-0.5 2.1-1.1 3.1-1.7l2.8 3.3c-0.5 0.4-1.1 0.7-1.7 0.9l4.9 3.1h-7.1l-2.2-1.3c-2.3 0.7-5.1 1.4-7.5 1.4-2.8 0-9-0.3-9-4.3zm1.3 0c0 2.9 5.8 2.9 7.7 2.9 2.4 0 5.4-0.7 7.7-1.4l2.4 1.3h2.4l-3.5-2c1-0.3 1.9-0.7 2.8-1.1l-1-1.3c-1 0.5-2 1.1-3 1.5l-7.1-4.1c1.5-0.7 5.3-2.7 5.3-4.5 0-2.6-4.3-2.9-6-2.9-1.7 0-6.1 0.4-6.1 2.9 0 1.6 3.3 3.6 4.5 4.3-1.1 0.6-6.1 3.1-6.1 4.4zm-1.9 0c0 1.5 0.4 2.7 3.2 5.2 2 2 6.5 2 8.8 2 2.4 0 5.1-0.6 7.4-1.3l2.2 1.2h9l-9.8-11.1c-1.1 0.6-3 1.7-3.5 1.8 1.4-1 2.6-2.5 2.6-4.1 0-1.2-0.1-2.1-2.7-4.7-2-2.1-5.4-2.5-7.6-2.5-3 0-8.1 0.6-8.1 4.8 0 1.6 1.3 3 2.5 4l0.1 0.2c-1.7 0.9-4.1 2.6-4.1 4.5zm32 2.8h1.5v-11.1l7.5 11.1h1.2l7.4-11.1v11.1h1.5v-14.1h-1.2c-2.8 4-5.6 8.1-8.3 12.3l-8.3-12.3h-1.3zm2.9 1.3h-4.2v-16.8h3.3l7.5 11.2 7.6-11.2h3.3v16.8h-4.1v-8.1l-5.4 8.1h-2.6l-5.4-8.1zm-0.6-17.4h-4.2v18l2.5 2.4h5.2v-5.6l2.2 3.2 2.4 2.4h3.2l2.1-3.2v0.8l2.5 2.4h5.2v-17.9l-2.4-2.5h-4.2l-6.9 10.3-5.2-7.8zm37.8 4.6c0-0.6-2.4-0.8-3-0.8-0.9 0-3.1 0.3-3.1 0.8 0 0.5 2.4 2.1 2.8 2.4 0.9-0.5 3.3-1.9 3.3-2.4zm1.4 0c0 1.5-3.7 3.1-4.9 3.7-1-0.5-4.1-2.5-4.1-3.8 0-1.4 3.6-1.8 4.6-1.8 2.4 0 4.5 0.6 4.4 1.9zm-8.7 8.6c0 0.2 0.3 0.2 0.3 0.2 1 0.3 2.9 0.3 4 0.3 1.1 0 2.1-0.1 3.2-0.5-1.3-0.5-2.5-1.4-3.7-2.1-0.4 0.2-3.8 1.8-3.8 2.1zm-1.6 0c0-1 4.6-3.1 5.4-3.6 2.2 1.4 4.5 2.6 6.7 3.9-1.5 0.7-4.5 1.4-6.2 1.4-1.1 0-5.9 0-5.9-1.7zm-3.1 0c0-1.9 3.2-3.7 4.7-4.5-1.4-0.9-3.2-2.3-3.2-4.2 0-3.6 4.7-4.2 7.5-4.2 2.6 0 7.3 0.6 7.3 4.2 0 2-2.1 3.8-3.7 4.7l4.1 2.6c1.1-0.5 2.1-1.1 3.1-1.7l2.8 3.3c-0.5 0.4-1.1 0.7-1.7 0.9l4.9 3.1h-7.1l-2.2-1.3c-2.3 0.8-5.1 1.4-7.5 1.4-2.8 0-9-0.2-9-4.3zm1.3 0c0 2.9 5.8 3 7.7 3 2.4 0 5.4-0.8 7.7-1.5l2.4 1.4h2.4l-3.5-2.1c1-0.3 1.9-0.7 2.8-1.1l-1-1.2c-1 0.5-2 1-3 1.4l-7.1-4.1c1.5-0.6 5.3-2.7 5.3-4.5 0-2.6-4.3-2.9-6-2.9-1.7 0-6.1 0.5-6.1 2.9 0 1.6 3.3 3.6 4.5 4.3-1.1 0.6-6.1 3.1-6.1 4.4zm-1.9 0c0 1.5 0.4 2.7 3.2 5.2 2 2 6.5 2 8.8 2 2.4 0 5.1-0.6 7.4-1.3l2.2 1.2h9l-9.8-11.1c-1.1 0.7-3 1.8-3.5 1.9 1.3-1.1 2.6-2.6 2.6-4.2 0-1.2-0.1-2.1-2.7-4.6-2-2.2-5.4-2.6-7.6-2.6-3 0-8.1 0.6-8.1 4.8 0 1.6 1.3 3 2.5 4l0.1 0.2c-1.7 0.9-4.1 2.6-4.1 4.5zm38.2-2.3l5.2-7.2 5 7.2zm5.2-4.9l-2.6 3.6h5.1zm10.5 10.1l-9.9-14.2h-1.2c-3.3 4.8-6.8 9.4-10.1 14.2h1.9c0.9-1.3 1.7-2.5 2.6-3.8h12.3l2.6 3.8zm-9.2-15.5l11.7 16.8h-5l-2.7-3.7h-10.8l-2.6 3.7h-5.1l12-16.8zm0.3-0.6h-3.2l-12.8 18 2.5 2.3h6.4c0.8-1 1.9-2.6 2.7-3.7h9.4l1 1.4 2.4 2.3h6.4l-12.4-17.9z"/>
	<path id="M&amp;A&amp;M&amp;A&amp;M&amp;A copy 2" class="s1" aria-label="M&amp;A&amp;M&amp;A&amp;M&amp;A"  d="m-62.8 55.7h1.5v-11.1l7.5 11.1h1.1l7.5-11.2v11.2h1.5v-14.2h-1.3c-2.8 4.1-5.6 8.2-8.3 12.3l-8.2-12.3h-1.3zm2.8 1.4h-4.1v-16.9h3.3l7.5 11.2 7.6-11.2h3.3v16.9h-4.1v-8.1l-5.4 8.1h-2.7l-5.4-8.1zm-0.5-17.5h-4.2v18.1l2.5 2.3h5.1v-5.6l2.2 3.3 2.5 2.3h3.1l2.2-3.2v0.9l2.5 2.3h5.1v-17.9l-2.3-2.5h-4.2l-7 10.3-5.2-7.8zm37.9 4.7c0-0.7-2.5-0.8-3.1-0.8-0.8 0-3 0.2-3 0.8 0 0.4 2.3 2 2.8 2.3 0.8-0.5 3.2-1.9 3.3-2.3zm1.4 0c0 1.5-3.8 3-4.9 3.7-1-0.6-4.1-2.5-4.1-3.8 0-1.5 3.5-1.9 4.5-1.9 2.5 0 4.5 0.7 4.5 2zm-8.7 8.6c0 0.1 0.2 0.1 0.3 0.2 1 0.2 2.9 0.3 3.9 0.3 1.2 0 2.2-0.1 3.3-0.5-1.3-0.6-2.5-1.4-3.8-2.1-0.4 0.2-3.7 1.7-3.7 2.1zm-1.6 0c0-1.1 4.5-3.2 5.4-3.6 2.2 1.3 4.5 2.5 6.7 3.9-1.6 0.6-4.6 1.3-6.3 1.3-1 0-5.8 0.1-5.8-1.6zm-3.2 0c0-1.9 3.3-3.7 4.7-4.5-1.4-1-3.1-2.4-3.1-4.2 0-3.7 4.7-4.3 7.4-4.3 2.7 0 7.4 0.6 7.4 4.2 0 2.1-2.2 3.8-3.8 4.7l4.2 2.6c1-0.5 2.1-1 3.1-1.6l2.8 3.3c-0.5 0.3-1.2 0.6-1.8 0.8l4.9 3.1h-7l-2.2-1.2c-2.4 0.7-5.1 1.3-7.6 1.3-2.8 0-9-0.2-9-4.2zm1.3 0c0 2.9 5.9 2.9 7.7 2.9 2.5 0 5.4-0.7 7.7-1.5l2.5 1.4h2.3l-3.4-2.1c0.9-0.3 1.8-0.6 2.7-1l-1-1.3c-1 0.5-1.9 1-3 1.4l-7-4.1c1.4-0.6 5.3-2.6 5.3-4.5 0-2.6-4.3-2.8-6.1-2.8-1.6 0-6.1 0.4-6.1 2.9 0 1.5 3.4 3.5 4.6 4.3-1.1 0.5-6.2 3-6.2 4.4zm-1.9 0c0 1.5 0.4 2.6 3.3 5.2 2 1.9 6.5 1.9 8.7 1.9 2.5 0 5.2-0.5 7.5-1.3l2.1 1.3h9l-9.7-11.1c-1.1 0.6-3.1 1.7-3.5 1.8 1.3-1.1 2.5-2.5 2.5-4.2 0-1.1-0.1-2.1-2.7-4.6-1.9-2.1-5.3-2.6-7.6-2.6-2.9 0-8 0.7-8 4.9 0 1.6 1.2 3 2.4 3.9l0.2 0.2c-1.7 1-4.2 2.7-4.2 4.6zm38.2-2.4l5.2-7.2 5.1 7.2zm5.1-4.9l-2.5 3.6h5.1zm10.4 10.1l-9.9-14.2h-1.1c-3.4 4.8-6.8 9.5-10.2 14.2h2c0.9-1.2 1.7-2.5 2.6-3.7h12.2l2.6 3.7zm-9.2-15.5l11.8 16.8h-5.1l-2.6-3.7h-10.8l-2.7 3.7h-5.1l12-16.8zm0.3-0.6h-3.1l-12.9 18 2.6 2.4h6.4c0.7-1.1 1.8-2.6 2.6-3.7h9.5l1 1.3 2.4 2.4h6.4l-12.5-17.9zm28.3 4.6c0-0.6-2.4-0.8-3-0.8-0.9 0-3.1 0.3-3.1 0.8 0 0.5 2.4 2.1 2.8 2.4 0.9-0.5 3.3-1.9 3.3-2.4zm1.5 0c0 1.5-3.8 3.1-5 3.7-1-0.5-4-2.5-4-3.7 0-1.5 3.5-1.9 4.5-1.9 2.4 0 4.5 0.6 4.5 1.9zm-8.8 8.6c0 0.2 0.3 0.2 0.4 0.2 0.9 0.3 2.9 0.3 3.9 0.3 1.1 0 2.1 0 3.2-0.5-1.3-0.5-2.5-1.3-3.7-2-0.4 0.1-3.8 1.7-3.8 2zm-1.6 0c0-1 4.6-3.1 5.4-3.6 2.2 1.4 4.5 2.6 6.7 4-1.5 0.6-4.5 1.3-6.2 1.3-1 0-5.9 0-5.9-1.7zm-3.1 0c0-1.9 3.2-3.7 4.7-4.5-1.4-0.9-3.2-2.3-3.2-4.1 0-3.7 4.7-4.3 7.5-4.3 2.6 0 7.4 0.6 7.4 4.2 0 2-2.2 3.8-3.8 4.7l4.1 2.6c1.1-0.5 2.1-1.1 3.1-1.7l2.8 3.3c-0.5 0.4-1.1 0.7-1.7 0.9l4.9 3.1h-7.1l-2.2-1.3c-2.3 0.8-5.1 1.4-7.5 1.4-2.8 0-9-0.2-9-4.3zm1.3 0c0 2.9 5.8 3 7.7 3 2.4 0 5.4-0.7 7.7-1.5l2.4 1.4h2.4l-3.5-2.1c1-0.3 1.9-0.7 2.8-1l-1-1.3c-1 0.5-2 1-3 1.4l-7.1-4.1c1.5-0.6 5.3-2.6 5.3-4.5 0-2.6-4.3-2.8-6-2.8-1.7 0-6.1 0.4-6.1 2.9 0 1.5 3.4 3.5 4.5 4.2-1.1 0.6-6.1 3.1-6.1 4.4zm-1.9 0c0 1.5 0.4 2.7 3.3 5.2 1.9 2 6.5 2 8.7 2 2.4 0 5.1-0.6 7.5-1.3l2.1 1.2h9l-9.8-11.1c-1.1 0.7-3 1.8-3.5 1.9 1.4-1.1 2.6-2.6 2.6-4.2 0-1.2-0.1-2.1-2.7-4.6-2-2.2-5.4-2.6-7.6-2.6-3 0-8.1 0.6-8.1 4.9 0 1.5 1.3 3 2.5 3.9l0.1 0.2c-1.7 0.9-4.1 2.6-4.1 4.5zm32.1 2.9h1.4v-11.1l7.5 11.1h1.2l7.4-11.2v11.2h1.5v-14.2h-1.2c-2.8 4.1-5.6 8.2-8.3 12.3l-8.3-12.3h-1.2zm2.8 1.4h-4.2v-16.9h3.3l7.6 11.2 7.5-11.2h3.4v16.9h-4.2v-8.2l-5.4 8.2h-2.6l-5.4-8.1zm-0.6-17.5h-4.2v18.1l2.5 2.3h5.2v-5.6l2.2 3.3 2.4 2.3h3.2l2.1-3.2v0.9l2.5 2.3h5.2v-17.9l-2.3-2.5h-4.2l-7 10.3-5.2-7.8zm37.8 4.7c0-0.7-2.4-0.8-3-0.8-0.9 0-3.1 0.2-3.1 0.8 0 0.4 2.4 2 2.8 2.3 0.9-0.5 3.3-1.9 3.3-2.3zm1.4 0c0 1.5-3.7 3-4.9 3.6-1-0.5-4.1-2.4-4.1-3.7 0-1.5 3.6-1.9 4.6-1.9 2.4 0 4.5 0.7 4.4 2zm-8.7 8.6c0 0.1 0.3 0.1 0.3 0.2 1 0.2 3 0.2 4 0.2 1.1 0 2.1 0 3.2-0.4-1.3-0.6-2.5-1.4-3.7-2.1-0.4 0.2-3.8 1.7-3.8 2.1zm-1.6 0c0-1.1 4.6-3.2 5.4-3.6 2.2 1.3 4.5 2.5 6.7 3.9-1.5 0.6-4.5 1.3-6.2 1.3-1 0-5.9 0.1-5.9-1.6zm-3.1 0c0-1.9 3.2-3.8 4.7-4.5-1.4-1-3.2-2.4-3.2-4.2 0-3.7 4.7-4.3 7.5-4.3 2.6 0 7.4 0.6 7.4 4.2 0 2-2.2 3.8-3.8 4.7l4.1 2.6c1.1-0.5 2.1-1 3.1-1.6l2.8 3.3c-0.5 0.3-1.1 0.6-1.7 0.8l4.9 3.1h-7.1l-2.2-1.3c-2.3 0.8-5.1 1.4-7.5 1.4-2.8 0-9-0.2-9-4.2zm1.3 0c0 2.8 5.8 2.9 7.7 2.9 2.4 0 5.4-0.7 7.7-1.5l2.4 1.4h2.4l-3.5-2.1c1-0.3 1.9-0.6 2.8-1l-1-1.3c-1 0.5-2 1-3 1.4l-7.1-4.1c1.5-0.6 5.3-2.6 5.3-4.5 0-2.6-4.3-2.8-6-2.8-1.7 0-6.1 0.4-6.1 2.9 0 1.5 3.3 3.5 4.5 4.3-1.1 0.5-6.1 3-6.1 4.4zm-1.9 0c0 1.5 0.4 2.6 3.2 5.2 2 1.9 6.6 1.9 8.8 1.9 2.4 0 5.1-0.5 7.4-1.3l2.2 1.3h9l-9.8-11.1c-1.1 0.6-3 1.7-3.5 1.8 1.4-1.1 2.6-2.5 2.6-4.2 0-1.1-0.1-2.1-2.7-4.6-2-2.1-5.4-2.6-7.6-2.6-3 0-8.1 0.7-8.1 4.9 0 1.6 1.3 3 2.5 3.9l0.1 0.2c-1.7 1-4.1 2.7-4.1 4.6zm38.2-2.4l5.2-7.2 5 7.2zm5.2-4.9l-2.6 3.6h5.1zm10.5 10.1l-9.9-14.2h-1.2c-3.3 4.8-6.7 9.5-10.1 14.2h1.9c0.9-1.2 1.7-2.5 2.6-3.7h12.3l2.6 3.7zm-9.2-15.5l11.8 16.8h-5.1l-2.7-3.7h-10.8l-2.6 3.7h-5.1l12-16.8zm0.3-0.6h-3.2l-12.8 18 2.5 2.4h6.4c0.8-1.1 1.9-2.6 2.7-3.7h9.4l1 1.3 2.5 2.4h6.3l-12.4-17.9zm28.3 4.6c0-0.6-2.5-0.8-3.1-0.8-0.8 0-3 0.3-3 0.8 0 0.5 2.3 2.1 2.7 2.4 0.9-0.5 3.3-1.9 3.4-2.4zm1.4 0c0 1.5-3.8 3.1-4.9 3.7-1.1-0.5-4.1-2.5-4.1-3.7 0-1.5 3.5-1.9 4.5-1.9 2.5 0 4.5 0.6 4.5 1.9zm-8.7 8.6c0 0.2 0.2 0.2 0.3 0.2 1 0.3 2.9 0.3 3.9 0.3 1.2 0 2.2-0.1 3.2-0.5-1.2-0.5-2.4-1.4-3.7-2-0.4 0.1-3.7 1.7-3.7 2zm-1.6 0c0-1 4.5-3.1 5.4-3.6 2.2 1.4 4.5 2.6 6.7 4-1.6 0.6-4.6 1.3-6.3 1.3-1 0-5.8 0-5.8-1.7zm-3.2 0c0-1.9 3.3-3.7 4.7-4.5-1.4-0.9-3.1-2.3-3.1-4.1 0-3.7 4.7-4.3 7.4-4.3 2.7 0 7.4 0.6 7.4 4.2 0 2-2.2 3.8-3.8 4.7l4.2 2.6c1-0.5 2.1-1.1 3.1-1.7l2.8 3.3c-0.5 0.4-1.2 0.7-1.8 0.9l4.9 3.1h-7l-2.3-1.3c-2.3 0.8-5 1.4-7.5 1.4-2.8 0-9-0.2-9-4.3zm1.3 0c0 2.9 5.9 3 7.7 3 2.5 0 5.4-0.8 7.7-1.5l2.5 1.4h2.3l-3.4-2.1c0.9-0.3 1.8-0.7 2.7-1l-1-1.3c-1 0.5-1.9 1-3 1.4l-7-4.1c1.4-0.6 5.3-2.6 5.3-4.5 0-2.6-4.3-2.9-6.1-2.9-1.6 0-6.1 0.5-6.1 3 0 1.5 3.4 3.5 4.5 4.2-1 0.6-6.1 3.1-6.1 4.4zm-1.9 0c0 1.5 0.4 2.7 3.3 5.2 2 2 6.5 2 8.7 2 2.5 0 5.2-0.6 7.5-1.3l2.1 1.2h9l-9.7-11.1c-1.1 0.7-3.1 1.8-3.5 1.9 1.3-1.1 2.5-2.6 2.5-4.2 0-1.2-0.1-2.1-2.7-4.6-2-2.2-5.3-2.6-7.6-2.6-2.9 0-8 0.6-8 4.9 0 1.5 1.2 3 2.4 3.9l0.2 0.2c-1.7 0.9-4.2 2.6-4.2 4.5zm32.1 2.9h1.5v-11.1l7.4 11.1h1.2l7.5-11.2v11.2h1.5v-14.2h-1.3c-2.8 4.1-5.6 8.2-8.3 12.3l-8.3-12.3h-1.2zm2.8 1.4h-4.1v-16.9h3.3l7.5 11.2 7.6-11.2h3.3v16.9h-4.1v-8.2l-5.5 8.2h-2.6l-5.4-8.1zm-0.5-17.5h-4.2v18.1l2.4 2.3h5.2v-5.6l2.2 3.3 2.4 2.3h3.2l2.2-3.2v0.9l2.4 2.3h5.2v-17.9l-2.3-2.5h-4.2l-7 10.3-5.2-7.8zm37.9 4.6c0-0.6-2.5-0.7-3.1-0.7-0.8 0-3 0.2-3 0.7 0 0.5 2.3 2.1 2.7 2.4 0.9-0.5 3.3-1.9 3.4-2.4zm1.4 0c0 1.6-3.8 3.1-5 3.7-1-0.5-4-2.5-4-3.7 0-1.5 3.5-1.9 4.5-1.9 2.5 0 4.5 0.7 4.5 1.9zm-8.7 8.7c0 0.1 0.2 0.1 0.3 0.2 1 0.2 2.9 0.2 3.9 0.2 1.2 0 2.2 0 3.2-0.4-1.2-0.6-2.5-1.4-3.7-2.1-0.4 0.2-3.7 1.7-3.7 2.1zm-1.7 0c0-1.1 4.6-3.2 5.5-3.6 2.2 1.3 4.5 2.5 6.7 3.9-1.6 0.6-4.6 1.3-6.3 1.3-1 0-5.9 0.1-5.9-1.6zm-3.1 0c0-1.9 3.3-3.8 4.7-4.5-1.4-1-3.1-2.4-3.1-4.2 0-3.7 4.7-4.3 7.4-4.3 2.7 0 7.4 0.6 7.4 4.2 0 2-2.2 3.8-3.8 4.7l4.2 2.6c1-0.5 2.1-1 3.1-1.6l2.8 3.3c-0.5 0.3-1.2 0.6-1.8 0.8l4.9 3.1h-7l-2.3-1.3c-2.3 0.8-5 1.4-7.5 1.4-2.8 0-9-0.2-9-4.2zm1.3 0c0 2.8 5.9 2.9 7.7 2.9 2.5 0 5.4-0.7 7.7-1.5l2.5 1.4h2.3l-3.4-2.1c0.9-0.3 1.8-0.6 2.7-1l-1-1.3c-1 0.5-1.9 1-3 1.4l-7.1-4.1c1.5-0.6 5.4-2.6 5.4-4.5 0-2.6-4.3-2.8-6.1-2.8-1.7 0-6.1 0.4-6.1 2.9 0 1.5 3.4 3.5 4.5 4.2-1 0.6-6.1 3.1-6.1 4.5zm-1.9 0c0 1.5 0.4 2.6 3.3 5.1 2 2 6.5 2 8.7 2 2.5 0 5.2-0.5 7.5-1.3l2.1 1.3h9l-9.7-11.1c-1.1 0.6-3.1 1.7-3.5 1.8 1.3-1.1 2.5-2.5 2.5-4.2 0-1.1-0.1-2.1-2.7-4.6-2-2.1-5.3-2.6-7.6-2.6-2.9 0-8 0.7-8 4.9 0 1.6 1.2 3 2.4 3.9l0.2 0.2c-1.7 1-4.2 2.7-4.2 4.6zm38.2-2.4l5.2-7.2 5.1 7.2zm5.1-4.9l-2.5 3.6h5zm10.5 10.1l-9.9-14.2h-1.1c-3.4 4.8-6.8 9.5-10.2 14.2h2c0.8-1.2 1.7-2.5 2.6-3.7h12.2l2.6 3.7zm-9.2-15.5l11.8 16.8h-5.1l-2.6-3.7h-10.9l-2.6 3.7h-5.1l12-16.8zm0.3-0.6h-3.1l-12.9 18 2.6 2.4h6.4c0.7-1.1 1.8-2.6 2.6-3.8h9.5l1 1.4 2.4 2.4h6.4l-12.5-17.9z"/>
	<path id="M&amp;A&amp;M&amp;A&amp;M&amp;A copy 3" class="s1" aria-label="M&amp;A&amp;M&amp;A&amp;M&amp;A"  d="m-24.8 76.7h1.5v-11.1l7.5 11.1h1.1l7.5-11.2v11.2h1.5v-14.2h-1.3c-2.8 4.1-5.6 8.2-8.3 12.3l-8.2-12.3h-1.3zm2.8 1.4h-4.1v-16.9h3.3l7.5 11.2 7.6-11.2h3.3v16.9h-4.1v-8.1l-5.4 8.1h-2.7l-5.4-8.1zm-0.5-17.5h-4.2v18.1l2.5 2.3h5.1v-5.6l2.2 3.3 2.5 2.3h3.1l2.2-3.2v0.9l2.5 2.3h5.1v-17.9l-2.3-2.5h-4.2l-7 10.3-5.2-7.8zm37.9 4.7c0-0.7-2.5-0.8-3.1-0.8-0.8 0-3 0.2-3 0.8 0 0.4 2.3 2 2.8 2.3 0.8-0.5 3.2-1.9 3.3-2.3zm1.4 0c0 1.5-3.8 3-4.9 3.7-1-0.6-4.1-2.5-4.1-3.8 0-1.5 3.5-1.9 4.5-1.9 2.5 0 4.5 0.7 4.5 2zm-8.7 8.6c0 0.1 0.2 0.1 0.3 0.2 1 0.2 2.9 0.3 3.9 0.3 1.2 0 2.2-0.1 3.3-0.5-1.3-0.6-2.5-1.4-3.8-2.1-0.4 0.2-3.7 1.7-3.7 2.1zm-1.6 0c0-1.1 4.5-3.2 5.4-3.6 2.2 1.3 4.5 2.5 6.7 3.9-1.6 0.6-4.6 1.3-6.3 1.3-1 0-5.8 0.1-5.8-1.6zm-3.2 0c0-1.9 3.3-3.7 4.7-4.5-1.4-1-3.1-2.4-3.1-4.2 0-3.7 4.7-4.3 7.4-4.3 2.7 0 7.4 0.6 7.4 4.2 0 2.1-2.2 3.8-3.8 4.7l4.2 2.6c1-0.5 2.1-1 3.1-1.6l2.8 3.3c-0.5 0.3-1.2 0.6-1.8 0.8l4.9 3.1h-7l-2.2-1.2c-2.4 0.7-5.1 1.3-7.6 1.3-2.8 0-9-0.2-9-4.2zm1.3 0c0 2.9 5.9 2.9 7.7 2.9 2.5 0 5.4-0.7 7.7-1.5l2.5 1.4h2.3l-3.4-2.1c0.9-0.3 1.8-0.6 2.7-1l-1-1.3c-1 0.5-1.9 1-3 1.4l-7-4.1c1.4-0.6 5.3-2.6 5.3-4.5 0-2.6-4.3-2.8-6.1-2.8-1.6 0-6.1 0.4-6.1 2.9 0 1.5 3.4 3.5 4.6 4.3-1.1 0.5-6.2 3-6.2 4.4zm-1.9 0c0 1.5 0.4 2.6 3.3 5.2 2 1.9 6.5 1.9 8.7 1.9 2.5 0 5.2-0.5 7.5-1.3l2.1 1.3h9l-9.7-11.1c-1.1 0.6-3.1 1.7-3.5 1.8 1.3-1.1 2.5-2.5 2.5-4.2 0-1.1-0.1-2.1-2.7-4.6-1.9-2.1-5.3-2.6-7.6-2.6-2.9 0-8 0.7-8 4.9 0 1.6 1.2 3 2.4 3.9l0.2 0.2c-1.7 1-4.2 2.7-4.2 4.6zm38.2-2.4l5.2-7.2 5.1 7.2zm5.1-4.9l-2.5 3.6h5.1zm10.4 10.1l-9.9-14.2h-1.1c-3.4 4.8-6.8 9.5-10.2 14.2h2c0.9-1.2 1.7-2.5 2.6-3.7h12.2l2.6 3.7zm-9.2-15.5l11.8 16.8h-5.1l-2.6-3.7h-10.8l-2.7 3.7h-5.1l12-16.8zm0.3-0.6h-3.1l-12.9 18 2.6 2.4h6.4c0.7-1.1 1.8-2.6 2.6-3.7h9.5l1 1.3 2.4 2.4h6.4l-12.5-17.9zm28.3 4.6c0-0.6-2.4-0.8-3-0.8-0.9 0-3.1 0.3-3.1 0.8 0 0.5 2.4 2.1 2.8 2.4 0.9-0.5 3.3-1.9 3.3-2.4zm1.5 0c0 1.5-3.8 3.1-5 3.7-1-0.5-4-2.5-4-3.7 0-1.5 3.5-1.9 4.5-1.9 2.4 0 4.5 0.6 4.5 1.9zm-8.8 8.6c0 0.2 0.3 0.2 0.4 0.2 0.9 0.3 2.9 0.3 3.9 0.3 1.1 0 2.1 0 3.2-0.5-1.3-0.5-2.5-1.3-3.7-2-0.4 0.1-3.8 1.7-3.8 2zm-1.6 0c0-1 4.6-3.1 5.4-3.6 2.2 1.4 4.5 2.6 6.7 4-1.5 0.6-4.5 1.3-6.2 1.3-1 0-5.9 0-5.9-1.7zm-3.1 0c0-1.9 3.2-3.7 4.7-4.5-1.4-0.9-3.2-2.3-3.2-4.1 0-3.7 4.7-4.3 7.5-4.3 2.6 0 7.4 0.6 7.4 4.2 0 2-2.2 3.8-3.8 4.7l4.1 2.6c1.1-0.5 2.1-1.1 3.1-1.7l2.8 3.3c-0.5 0.4-1.1 0.7-1.7 0.9l4.9 3.1h-7.1l-2.2-1.3c-2.3 0.8-5.1 1.4-7.5 1.4-2.8 0-9-0.2-9-4.3zm1.3 0c0 2.9 5.8 3 7.7 3 2.4 0 5.4-0.7 7.7-1.5l2.4 1.4h2.4l-3.5-2.1c1-0.3 1.9-0.7 2.8-1l-1-1.3c-1 0.5-2 1-3 1.4l-7.1-4.1c1.5-0.6 5.3-2.6 5.3-4.5 0-2.6-4.3-2.8-6-2.8-1.7 0-6.1 0.4-6.1 2.9 0 1.5 3.4 3.5 4.5 4.2-1.1 0.6-6.1 3.1-6.1 4.4zm-1.9 0c0 1.5 0.4 2.7 3.3 5.2 1.9 2 6.5 2 8.7 2 2.4 0 5.1-0.6 7.5-1.3l2.1 1.2h9l-9.8-11.1c-1.1 0.7-3 1.8-3.5 1.9 1.4-1.1 2.6-2.6 2.6-4.2 0-1.2-0.1-2.1-2.7-4.6-2-2.2-5.4-2.6-7.6-2.6-3 0-8.1 0.6-8.1 4.9 0 1.5 1.3 3 2.5 3.9l0.1 0.2c-1.7 0.9-4.1 2.6-4.1 4.5zm32.1 2.9h1.4v-11.1l7.5 11.1h1.2l7.4-11.2v11.2h1.5v-14.2h-1.2c-2.8 4.1-5.6 8.2-8.3 12.3l-8.3-12.3h-1.2zm2.8 1.4h-4.2v-16.9h3.3l7.6 11.2 7.5-11.2h3.4v16.9h-4.2v-8.2l-5.4 8.2h-2.6l-5.4-8.1zm-0.6-17.5h-4.2v18.1l2.5 2.3h5.2v-5.6l2.2 3.3 2.4 2.3h3.2l2.1-3.2v0.9l2.5 2.3h5.2v-17.9l-2.3-2.5h-4.2l-7 10.3-5.2-7.8zm37.8 4.7c0-0.7-2.4-0.8-3-0.8-0.9 0-3.1 0.2-3.1 0.8 0 0.4 2.4 2 2.8 2.3 0.9-0.5 3.3-1.9 3.3-2.3zm1.4 0c0 1.5-3.7 3-4.9 3.6-1-0.5-4.1-2.4-4.1-3.7 0-1.5 3.6-1.9 4.6-1.9 2.4 0 4.5 0.7 4.4 2zm-8.7 8.6c0 0.1 0.3 0.1 0.3 0.2 1 0.2 3 0.2 4 0.2 1.1 0 2.1 0 3.2-0.4-1.3-0.6-2.5-1.4-3.7-2.1-0.4 0.2-3.8 1.7-3.8 2.1zm-1.6 0c0-1.1 4.6-3.2 5.4-3.6 2.2 1.3 4.5 2.5 6.7 3.9-1.5 0.6-4.5 1.3-6.2 1.3-1 0-5.9 0.1-5.9-1.6zm-3.1 0c0-1.9 3.2-3.8 4.7-4.5-1.4-1-3.2-2.4-3.2-4.2 0-3.7 4.7-4.3 7.5-4.3 2.6 0 7.4 0.6 7.4 4.2 0 2-2.2 3.8-3.8 4.7l4.1 2.6c1.1-0.5 2.1-1 3.1-1.6l2.8 3.3c-0.5 0.3-1.1 0.6-1.7 0.8l4.9 3.1h-7.1l-2.2-1.3c-2.3 0.8-5.1 1.4-7.5 1.4-2.8 0-9-0.2-9-4.2zm1.3 0c0 2.8 5.8 2.9 7.7 2.9 2.4 0 5.4-0.7 7.7-1.5l2.4 1.4h2.4l-3.5-2.1c1-0.3 1.9-0.6 2.8-1l-1-1.3c-1 0.5-2 1-3 1.4l-7.1-4.1c1.5-0.6 5.3-2.6 5.3-4.5 0-2.6-4.3-2.8-6-2.8-1.7 0-6.1 0.4-6.1 2.9 0 1.5 3.3 3.5 4.5 4.3-1.1 0.5-6.1 3-6.1 4.4zm-1.9 0c0 1.5 0.4 2.6 3.2 5.2 2 1.9 6.6 1.9 8.8 1.9 2.4 0 5.1-0.5 7.4-1.3l2.2 1.3h9l-9.8-11.1c-1.1 0.6-3 1.7-3.5 1.8 1.4-1.1 2.6-2.5 2.6-4.2 0-1.1-0.1-2.1-2.7-4.6-2-2.1-5.4-2.6-7.6-2.6-3 0-8.1 0.7-8.1 4.9 0 1.6 1.3 3 2.5 3.9l0.1 0.2c-1.7 1-4.1 2.7-4.1 4.6zm38.2-2.4l5.2-7.2 5 7.2zm5.2-4.9l-2.6 3.6h5.1zm10.5 10.1l-9.9-14.2h-1.2c-3.3 4.8-6.7 9.5-10.1 14.2h1.9c0.9-1.2 1.7-2.5 2.6-3.7h12.3l2.6 3.7zm-9.2-15.5l11.8 16.8h-5.1l-2.7-3.7h-10.8l-2.6 3.7h-5.1l12-16.8zm0.3-0.6h-3.2l-12.8 18 2.5 2.4h6.4c0.8-1.1 1.9-2.6 2.7-3.7h9.4l1 1.3 2.5 2.4h6.3l-12.4-17.9zm28.3 4.6c0-0.6-2.5-0.8-3.1-0.8-0.8 0-3 0.3-3 0.8 0 0.5 2.3 2.1 2.7 2.4 0.9-0.5 3.3-1.9 3.4-2.4zm1.4 0c0 1.5-3.8 3.1-4.9 3.7-1.1-0.5-4.1-2.5-4.1-3.7 0-1.5 3.5-1.9 4.5-1.9 2.5 0 4.5 0.6 4.5 1.9zm-8.7 8.6c0 0.2 0.2 0.2 0.3 0.2 1 0.3 2.9 0.3 3.9 0.3 1.2 0 2.2-0.1 3.2-0.5-1.2-0.5-2.4-1.4-3.7-2-0.4 0.1-3.7 1.7-3.7 2zm-1.6 0c0-1 4.5-3.1 5.4-3.6 2.2 1.4 4.5 2.6 6.7 4-1.6 0.6-4.6 1.3-6.3 1.3-1 0-5.8 0-5.8-1.7zm-3.2 0c0-1.9 3.3-3.7 4.7-4.5-1.4-0.9-3.1-2.3-3.1-4.1 0-3.7 4.7-4.3 7.4-4.3 2.7 0 7.4 0.6 7.4 4.2 0 2-2.2 3.8-3.8 4.7l4.2 2.6c1-0.5 2.1-1.1 3.1-1.7l2.8 3.3c-0.5 0.4-1.2 0.7-1.8 0.9l4.9 3.1h-7l-2.3-1.3c-2.3 0.8-5 1.4-7.5 1.4-2.8 0-9-0.2-9-4.3zm1.3 0c0 2.9 5.9 3 7.7 3 2.5 0 5.4-0.8 7.7-1.5l2.5 1.4h2.3l-3.4-2.1c0.9-0.3 1.8-0.7 2.7-1l-1-1.3c-1 0.5-1.9 1-3 1.4l-7-4.1c1.4-0.6 5.3-2.6 5.3-4.5 0-2.6-4.3-2.9-6.1-2.9-1.6 0-6.1 0.5-6.1 3 0 1.5 3.4 3.5 4.5 4.2-1 0.6-6.1 3.1-6.1 4.4zm-1.9 0c0 1.5 0.4 2.7 3.3 5.2 2 2 6.5 2 8.7 2 2.5 0 5.2-0.6 7.5-1.3l2.1 1.2h9l-9.7-11.1c-1.1 0.7-3.1 1.8-3.5 1.9 1.3-1.1 2.5-2.6 2.5-4.2 0-1.2-0.1-2.1-2.7-4.6-2-2.2-5.3-2.6-7.6-2.6-2.9 0-8 0.6-8 4.9 0 1.5 1.2 3 2.4 3.9l0.2 0.2c-1.7 0.9-4.2 2.6-4.2 4.5zm32.1 2.9h1.5v-11.1l7.4 11.1h1.2l7.5-11.2v11.2h1.5v-14.2h-1.3c-2.8 4.1-5.6 8.2-8.3 12.3l-8.3-12.3h-1.2zm2.8 1.4h-4.1v-16.9h3.3l7.5 11.2 7.6-11.2h3.3v16.9h-4.1v-8.2l-5.5 8.2h-2.6l-5.4-8.1zm-0.5-17.5h-4.2v18.1l2.4 2.3h5.2v-5.6l2.2 3.3 2.4 2.3h3.2l2.2-3.2v0.9l2.4 2.3h5.2v-17.9l-2.3-2.5h-4.2l-7 10.3-5.2-7.8zm37.9 4.6c0-0.6-2.5-0.7-3.1-0.7-0.8 0-3 0.2-3 0.7 0 0.5 2.3 2.1 2.7 2.4 0.9-0.5 3.3-1.9 3.4-2.4zm1.4 0c0 1.6-3.8 3.1-5 3.7-1-0.5-4-2.5-4-3.7 0-1.5 3.5-1.9 4.5-1.9 2.5 0 4.5 0.7 4.5 1.9zm-8.7 8.7c0 0.1 0.2 0.1 0.3 0.2 1 0.2 2.9 0.2 3.9 0.2 1.2 0 2.2 0 3.2-0.4-1.2-0.6-2.5-1.4-3.7-2.1-0.4 0.2-3.7 1.7-3.7 2.1zm-1.7 0c0-1.1 4.6-3.2 5.5-3.6 2.2 1.3 4.5 2.5 6.7 3.9-1.6 0.6-4.6 1.3-6.3 1.3-1 0-5.9 0.1-5.9-1.6zm-3.1 0c0-1.9 3.3-3.8 4.7-4.5-1.4-1-3.1-2.4-3.1-4.2 0-3.7 4.7-4.3 7.4-4.3 2.7 0 7.4 0.6 7.4 4.2 0 2-2.2 3.8-3.8 4.7l4.2 2.6c1-0.5 2.1-1 3.1-1.6l2.8 3.3c-0.5 0.3-1.2 0.6-1.8 0.8l4.9 3.1h-7l-2.3-1.3c-2.3 0.8-5 1.4-7.5 1.4-2.8 0-9-0.2-9-4.2zm1.3 0c0 2.8 5.9 2.9 7.7 2.9 2.5 0 5.4-0.7 7.7-1.5l2.5 1.4h2.3l-3.4-2.1c0.9-0.3 1.8-0.6 2.7-1l-1-1.3c-1 0.5-1.9 1-3 1.4l-7.1-4.1c1.5-0.6 5.4-2.6 5.4-4.5 0-2.6-4.3-2.8-6.1-2.8-1.7 0-6.1 0.4-6.1 2.9 0 1.5 3.4 3.5 4.5 4.2-1 0.6-6.1 3.1-6.1 4.5zm-1.9 0c0 1.5 0.4 2.6 3.3 5.1 2 2 6.5 2 8.7 2 2.5 0 5.2-0.5 7.5-1.3l2.1 1.3h9l-9.7-11.1c-1.1 0.6-3.1 1.7-3.5 1.8 1.3-1.1 2.5-2.5 2.5-4.2 0-1.1-0.1-2.1-2.7-4.6-2-2.1-5.3-2.6-7.6-2.6-2.9 0-8 0.7-8 4.9 0 1.6 1.2 3 2.4 3.9l0.2 0.2c-1.7 1-4.2 2.7-4.2 4.6zm38.2-2.4l5.2-7.2 5.1 7.2zm5.1-4.9l-2.5 3.6h5zm10.5 10.1l-9.9-14.2h-1.1c-3.4 4.8-6.8 9.5-10.2 14.2h2c0.8-1.2 1.7-2.5 2.6-3.7h12.2l2.6 3.7zm-9.2-15.5l11.8 16.8h-5.1l-2.6-3.7h-10.9l-2.6 3.7h-5.1l12-16.8zm0.3-0.6h-3.1l-12.9 18 2.6 2.4h6.4c0.7-1.1 1.8-2.6 2.6-3.8h9.5l1 1.4 2.4 2.4h6.4l-12.5-17.9z"/>
	<path id="M&amp;A&amp;M&amp;A&amp;M&amp;A" class="s1" aria-label="M&amp;A&amp;M&amp;A&amp;M&amp;A"  d="m-38.8 97.7h1.5v-11.1l7.5 11.1h1.1l7.5-11.2v11.2h1.5v-14.2h-1.3c-2.8 4.1-5.6 8.2-8.3 12.3l-8.2-12.3h-1.3zm2.8 1.4h-4.1v-16.9h3.3l7.5 11.2 7.6-11.2h3.3v16.9h-4.1v-8.1l-5.4 8.1h-2.7l-5.4-8.1zm-0.5-17.5h-4.2v18.1l2.5 2.3h5.1v-5.6l2.2 3.3 2.5 2.3h3.1l2.2-3.2v0.9l2.5 2.3h5.1v-17.9l-2.3-2.5h-4.2l-7 10.3-5.2-7.8zm37.9 4.7c0-0.7-2.5-0.8-3.1-0.8-0.8 0-3 0.2-3 0.8 0 0.4 2.3 2 2.8 2.3 0.8-0.5 3.2-1.9 3.3-2.3zm1.4 0c0 1.5-3.8 3-4.9 3.7-1-0.6-4.1-2.5-4.1-3.8 0-1.5 3.5-1.9 4.5-1.9 2.5 0 4.5 0.7 4.5 2zm-8.7 8.6c0 0.1 0.2 0.1 0.3 0.2 1 0.2 2.9 0.3 3.9 0.3 1.2 0 2.2-0.1 3.3-0.5-1.3-0.6-2.5-1.4-3.8-2.1-0.4 0.2-3.7 1.7-3.7 2.1zm-1.6 0c0-1.1 4.5-3.2 5.4-3.6 2.2 1.3 4.5 2.5 6.7 3.9-1.6 0.6-4.6 1.3-6.3 1.3-1 0-5.8 0.1-5.8-1.6zm-3.2 0c0-1.9 3.3-3.7 4.7-4.5-1.4-1-3.1-2.4-3.1-4.2 0-3.7 4.7-4.3 7.4-4.3 2.7 0 7.4 0.6 7.4 4.2 0 2.1-2.2 3.8-3.8 4.7l4.2 2.6c1-0.5 2.1-1 3.1-1.6l2.8 3.3c-0.5 0.3-1.2 0.6-1.8 0.8l4.9 3.1h-7l-2.2-1.2c-2.4 0.7-5.1 1.3-7.6 1.3-2.8 0-9-0.2-9-4.2zm1.3 0c0 2.9 5.9 2.9 7.7 2.9 2.5 0 5.4-0.7 7.7-1.5l2.5 1.4h2.3l-3.4-2.1c0.9-0.3 1.8-0.6 2.7-1l-1-1.3c-1 0.5-1.9 1-3 1.4l-7-4.1c1.4-0.6 5.3-2.6 5.3-4.5 0-2.6-4.3-2.8-6.1-2.8-1.6 0-6.1 0.4-6.1 2.9 0 1.5 3.4 3.5 4.6 4.3-1.1 0.5-6.2 3-6.2 4.4zm-1.9 0c0 1.5 0.4 2.6 3.3 5.2 2 1.9 6.5 1.9 8.7 1.9 2.5 0 5.2-0.5 7.5-1.3l2.1 1.3h9l-9.7-11.1c-1.1 0.6-3.1 1.7-3.5 1.8 1.3-1.1 2.5-2.5 2.5-4.2 0-1.1-0.1-2.1-2.7-4.6-1.9-2.1-5.3-2.6-7.6-2.6-2.9 0-8 0.7-8 4.9 0 1.6 1.2 3 2.4 3.9l0.2 0.2c-1.7 1-4.2 2.7-4.2 4.6zm38.2-2.4l5.2-7.2 5.1 7.2zm5.1-4.9l-2.5 3.6h5.1zm10.4 10.1l-9.9-14.2h-1.1c-3.4 4.8-6.8 9.5-10.2 14.2h2c0.9-1.2 1.7-2.5 2.6-3.7h12.2l2.6 3.7zm-9.2-15.5l11.8 16.8h-5.1l-2.6-3.7h-10.8l-2.7 3.7h-5.1l12-16.8zm0.3-0.6h-3.1l-12.9 18 2.6 2.4h6.4c0.7-1.1 1.8-2.6 2.6-3.7h9.5l1 1.3 2.4 2.4h6.4l-12.5-17.9zm28.3 4.6c0-0.6-2.4-0.8-3-0.8-0.9 0-3.1 0.3-3.1 0.8 0 0.5 2.4 2.1 2.8 2.4 0.9-0.5 3.3-1.9 3.3-2.4zm1.5 0c0 1.5-3.8 3.1-5 3.7-1-0.5-4-2.5-4-3.7 0-1.5 3.5-1.9 4.5-1.9 2.4 0 4.5 0.6 4.5 1.9zm-8.8 8.6c0 0.2 0.3 0.2 0.4 0.2 0.9 0.3 2.9 0.3 3.9 0.3 1.1 0 2.1 0 3.2-0.5-1.3-0.5-2.5-1.3-3.7-2-0.4 0.1-3.8 1.7-3.8 2zm-1.6 0c0-1 4.6-3.1 5.4-3.6 2.2 1.4 4.5 2.6 6.7 4-1.5 0.6-4.5 1.3-6.2 1.3-1 0-5.9 0-5.9-1.7zm-3.1 0c0-1.9 3.2-3.7 4.7-4.5-1.4-0.9-3.2-2.3-3.2-4.1 0-3.7 4.7-4.3 7.5-4.3 2.6 0 7.4 0.6 7.4 4.2 0 2-2.2 3.8-3.8 4.7l4.1 2.6c1.1-0.5 2.1-1.1 3.1-1.7l2.8 3.3c-0.5 0.4-1.1 0.7-1.7 0.9l4.9 3.1h-7.1l-2.2-1.3c-2.3 0.8-5.1 1.4-7.5 1.4-2.8 0-9-0.2-9-4.3zm1.3 0c0 2.9 5.8 3 7.7 3 2.4 0 5.4-0.7 7.7-1.5l2.4 1.4h2.4l-3.5-2.1c1-0.3 1.9-0.7 2.8-1l-1-1.3c-1 0.5-2 1-3 1.4l-7.1-4.1c1.5-0.6 5.3-2.6 5.3-4.5 0-2.6-4.3-2.8-6-2.8-1.7 0-6.1 0.4-6.1 2.9 0 1.5 3.4 3.5 4.5 4.2-1.1 0.6-6.1 3.1-6.1 4.4zm-1.9 0c0 1.5 0.4 2.7 3.3 5.2 1.9 2 6.5 2 8.7 2 2.4 0 5.1-0.6 7.5-1.3l2.1 1.2h9l-9.8-11.1c-1.1 0.7-3 1.8-3.5 1.9 1.4-1.1 2.6-2.6 2.6-4.2 0-1.2-0.1-2.1-2.7-4.6-2-2.2-5.4-2.6-7.6-2.6-3 0-8.1 0.6-8.1 4.9 0 1.5 1.3 3 2.5 3.9l0.1 0.2c-1.7 0.9-4.1 2.6-4.1 4.5zm32.1 2.9h1.4v-11.1l7.5 11.1h1.2l7.4-11.2v11.2h1.5v-14.2h-1.2c-2.8 4.1-5.6 8.2-8.3 12.3l-8.3-12.3h-1.2zm2.8 1.4h-4.2v-16.9h3.3l7.6 11.2 7.5-11.2h3.4v16.9h-4.2v-8.2l-5.4 8.2h-2.6l-5.4-8.1zm-0.6-17.5h-4.2v18.1l2.5 2.3h5.2v-5.6l2.2 3.3 2.4 2.3h3.2l2.1-3.2v0.9l2.5 2.3h5.2v-17.9l-2.3-2.5h-4.2l-7 10.3-5.2-7.8zm37.8 4.7c0-0.7-2.4-0.8-3-0.8-0.9 0-3.1 0.2-3.1 0.8 0 0.4 2.4 2 2.8 2.3 0.9-0.5 3.3-1.9 3.3-2.3zm1.4 0c0 1.5-3.7 3-4.9 3.6-1-0.5-4.1-2.4-4.1-3.7 0-1.5 3.6-1.9 4.6-1.9 2.4 0 4.5 0.7 4.4 2zm-8.7 8.6c0 0.1 0.3 0.1 0.3 0.2 1 0.2 3 0.2 4 0.2 1.1 0 2.1 0 3.2-0.4-1.3-0.6-2.5-1.4-3.7-2.1-0.4 0.2-3.8 1.7-3.8 2.1zm-1.6 0c0-1.1 4.6-3.2 5.4-3.6 2.2 1.3 4.5 2.5 6.7 3.9-1.5 0.6-4.5 1.3-6.2 1.3-1 0-5.9 0.1-5.9-1.6zm-3.1 0c0-1.9 3.2-3.8 4.7-4.5-1.4-1-3.2-2.4-3.2-4.2 0-3.7 4.7-4.3 7.5-4.3 2.6 0 7.4 0.6 7.4 4.2 0 2-2.2 3.8-3.8 4.7l4.1 2.6c1.1-0.5 2.1-1 3.1-1.6l2.8 3.3c-0.5 0.3-1.1 0.6-1.7 0.8l4.9 3.1h-7.1l-2.2-1.3c-2.3 0.8-5.1 1.4-7.5 1.4-2.8 0-9-0.2-9-4.2zm1.3 0c0 2.8 5.8 2.9 7.7 2.9 2.4 0 5.4-0.7 7.7-1.5l2.4 1.4h2.4l-3.5-2.1c1-0.3 1.9-0.6 2.8-1l-1-1.3c-1 0.5-2 1-3 1.4l-7.1-4.1c1.5-0.6 5.3-2.6 5.3-4.5 0-2.6-4.3-2.8-6-2.8-1.7 0-6.1 0.4-6.1 2.9 0 1.5 3.3 3.5 4.5 4.3-1.1 0.5-6.1 3-6.1 4.4zm-1.9 0c0 1.5 0.4 2.6 3.2 5.2 2 1.9 6.6 1.9 8.8 1.9 2.4 0 5.1-0.5 7.4-1.3l2.2 1.3h9l-9.8-11.1c-1.1 0.6-3 1.7-3.5 1.8 1.4-1.1 2.6-2.5 2.6-4.2 0-1.1-0.1-2.1-2.7-4.6-2-2.1-5.4-2.6-7.6-2.6-3 0-8.1 0.7-8.1 4.9 0 1.6 1.3 3 2.5 3.9l0.1 0.2c-1.7 1-4.1 2.7-4.1 4.6zm38.2-2.4l5.2-7.2 5 7.2zm5.2-4.9l-2.6 3.6h5.1zm10.5 10.1l-9.9-14.2h-1.2c-3.3 4.8-6.7 9.5-10.1 14.2h1.9c0.9-1.2 1.7-2.5 2.6-3.7h12.3l2.6 3.7zm-9.2-15.5l11.8 16.8h-5.1l-2.7-3.7h-10.8l-2.6 3.7h-5.1l12-16.8zm0.3-0.6h-3.2l-12.8 18 2.5 2.4h6.4c0.8-1.1 1.9-2.6 2.7-3.7h9.4l1 1.3 2.5 2.4h6.3l-12.4-17.9zm28.3 4.6c0-0.6-2.5-0.8-3.1-0.8-0.8 0-3 0.3-3 0.8 0 0.5 2.3 2.1 2.7 2.4 0.9-0.5 3.3-1.9 3.4-2.4zm1.4 0c0 1.5-3.8 3.1-4.9 3.7-1.1-0.5-4.1-2.5-4.1-3.7 0-1.5 3.5-1.9 4.5-1.9 2.5 0 4.5 0.6 4.5 1.9zm-8.7 8.6c0 0.2 0.2 0.2 0.3 0.2 1 0.3 2.9 0.3 3.9 0.3 1.2 0 2.2-0.1 3.2-0.5-1.2-0.5-2.4-1.4-3.7-2-0.4 0.1-3.7 1.7-3.7 2zm-1.6 0c0-1 4.5-3.1 5.4-3.6 2.2 1.4 4.5 2.6 6.7 4-1.6 0.6-4.6 1.3-6.3 1.3-1 0-5.8 0-5.8-1.7zm-3.2 0c0-1.9 3.3-3.7 4.7-4.5-1.4-0.9-3.1-2.3-3.1-4.1 0-3.7 4.7-4.3 7.4-4.3 2.7 0 7.4 0.6 7.4 4.2 0 2-2.2 3.8-3.8 4.7l4.2 2.6c1-0.5 2.1-1.1 3.1-1.7l2.8 3.3c-0.5 0.4-1.2 0.7-1.8 0.9l4.9 3.1h-7l-2.3-1.3c-2.3 0.8-5 1.4-7.5 1.4-2.8 0-9-0.2-9-4.3zm1.3 0c0 2.9 5.9 3 7.7 3 2.5 0 5.4-0.8 7.7-1.5l2.5 1.4h2.3l-3.4-2.1c0.9-0.3 1.8-0.7 2.7-1l-1-1.3c-1 0.5-1.9 1-3 1.4l-7-4.1c1.4-0.6 5.3-2.6 5.3-4.5 0-2.6-4.3-2.9-6.1-2.9-1.6 0-6.1 0.5-6.1 3 0 1.5 3.4 3.5 4.5 4.2-1 0.6-6.1 3.1-6.1 4.4zm-1.9 0c0 1.5 0.4 2.7 3.3 5.2 2 2 6.5 2 8.7 2 2.5 0 5.2-0.6 7.5-1.3l2.1 1.2h9l-9.7-11.1c-1.1 0.7-3.1 1.8-3.5 1.9 1.3-1.1 2.5-2.6 2.5-4.2 0-1.2-0.1-2.1-2.7-4.6-2-2.2-5.3-2.6-7.6-2.6-2.9 0-8 0.6-8 4.9 0 1.5 1.2 3 2.4 3.9l0.2 0.2c-1.7 0.9-4.2 2.6-4.2 4.5zm32.1 2.9h1.5v-11.1l7.4 11.1h1.2l7.5-11.2v11.2h1.5v-14.2h-1.3c-2.8 4.1-5.6 8.2-8.3 12.3l-8.3-12.3h-1.2zm2.8 1.4h-4.1v-16.9h3.3l7.5 11.2 7.6-11.2h3.3v16.9h-4.1v-8.2l-5.5 8.2h-2.6l-5.4-8.1zm-0.5-17.5h-4.2v18.1l2.4 2.3h5.2v-5.6l2.2 3.3 2.4 2.3h3.2l2.2-3.2v0.9l2.4 2.3h5.2v-17.9l-2.3-2.5h-4.2l-7 10.3-5.2-7.8zm37.9 4.6c0-0.6-2.5-0.7-3.1-0.7-0.8 0-3 0.2-3 0.7 0 0.5 2.3 2.1 2.7 2.4 0.9-0.5 3.3-1.9 3.4-2.4zm1.4 0c0 1.6-3.8 3.1-5 3.7-1-0.5-4-2.5-4-3.7 0-1.5 3.5-1.9 4.5-1.9 2.5 0 4.5 0.7 4.5 1.9zm-8.7 8.7c0 0.1 0.2 0.1 0.3 0.2 1 0.2 2.9 0.2 3.9 0.2 1.2 0 2.2 0 3.2-0.4-1.2-0.6-2.5-1.4-3.7-2.1-0.4 0.2-3.7 1.7-3.7 2.1zm-1.7 0c0-1.1 4.6-3.2 5.5-3.6 2.2 1.3 4.5 2.5 6.7 3.9-1.6 0.6-4.6 1.3-6.3 1.3-1 0-5.9 0.1-5.9-1.6zm-3.1 0c0-1.9 3.3-3.8 4.7-4.5-1.4-1-3.1-2.4-3.1-4.2 0-3.7 4.7-4.3 7.4-4.3 2.7 0 7.4 0.6 7.4 4.2 0 2-2.2 3.8-3.8 4.7l4.2 2.6c1-0.5 2.1-1 3.1-1.6l2.8 3.3c-0.5 0.3-1.2 0.6-1.8 0.8l4.9 3.1h-7l-2.3-1.3c-2.3 0.8-5 1.4-7.5 1.4-2.8 0-9-0.2-9-4.2zm1.3 0c0 2.8 5.9 2.9 7.7 2.9 2.5 0 5.4-0.7 7.7-1.5l2.5 1.4h2.3l-3.4-2.1c0.9-0.3 1.8-0.6 2.7-1l-1-1.3c-1 0.5-1.9 1-3 1.4l-7.1-4.1c1.5-0.6 5.4-2.6 5.4-4.5 0-2.6-4.3-2.8-6.1-2.8-1.7 0-6.1 0.4-6.1 2.9 0 1.5 3.4 3.5 4.5 4.2-1 0.6-6.1 3.1-6.1 4.5zm-1.9 0c0 1.5 0.4 2.6 3.3 5.1 2 2 6.5 2 8.7 2 2.5 0 5.2-0.5 7.5-1.3l2.1 1.3h9l-9.7-11.1c-1.1 0.6-3.1 1.7-3.5 1.8 1.3-1.1 2.5-2.5 2.5-4.2 0-1.1-0.1-2.1-2.7-4.6-2-2.1-5.3-2.6-7.6-2.6-2.9 0-8 0.7-8 4.9 0 1.6 1.2 3 2.4 3.9l0.2 0.2c-1.7 1-4.2 2.7-4.2 4.6zm38.2-2.4l5.2-7.2 5.1 7.2zm5.1-4.9l-2.5 3.6h5zm10.5 10.1l-9.9-14.2h-1.1c-3.4 4.8-6.8 9.5-10.2 14.2h2c0.8-1.2 1.7-2.5 2.6-3.7h12.2l2.6 3.7zm-9.2-15.5l11.8 16.8h-5.1l-2.6-3.7h-10.9l-2.6 3.7h-5.1l12-16.8zm0.3-0.6h-3.1l-12.9 18 2.6 2.4h6.4c0.7-1.1 1.8-2.6 2.6-3.8h9.5l1 1.4 2.4 2.4h6.4l-12.5-17.9z"/>
</svg>